<svg width="103" height="75" viewBox="0 0 103 75" fill="none" xmlns="http://www.w3.org/2000/svg">
<g clip-path="url(#clip0_518_2)">
<path d="M34.716 4.93039C31.0811 18.896 21.4678 58.1146 21.4678 58.9277C21.4678 59.7886 21.7547 59.8842 25.1983 59.7408L28.881 59.5973L32.229 46.2056L35.5769 32.8139L37.8726 32.6704C39.6901 32.5269 40.1205 32.6704 40.1205 33.2921C40.1205 33.7226 37.9683 42.7142 35.3856 53.284C32.7551 63.8539 30.555 72.9412 30.4594 73.4673C30.3159 74.376 30.6028 74.4238 34.1421 74.4238H37.9205L41.3162 60.9365L44.6641 47.4013H47.5338C50.3078 47.4013 50.4991 47.4491 51.3122 48.9317C54.2775 54.0971 57.5776 59.6451 57.8645 59.8364C58.008 59.9799 59.8255 62.993 61.8821 66.5323C63.9386 70.0715 65.8517 73.3716 66.1387 73.8021C66.5692 74.5195 67.3822 74.663 71.0649 74.663C73.5042 74.663 75.5129 74.4717 75.5129 74.2325C75.5129 73.9934 74.7955 72.5107 73.9346 70.9802C71.4954 66.7236 68.004 60.6495 66.4735 57.8277C65.7083 56.4407 64.0821 53.571 62.8864 51.4666C61.6907 49.3622 60.6864 47.5447 60.6864 47.4013C60.6864 47.2578 62.2169 46.7795 64.0821 46.3491C70.778 44.7707 77.139 39.4619 79.8174 33.2443C80.8696 30.8051 81.4914 26.4528 81.0609 24.2527C80.487 21.2874 75.0825 16.3133 72.4041 16.3133C71.7824 16.3133 71.6867 15.8351 71.9737 13.2524C72.3563 9.28269 71.6867 7.32176 68.9605 4.5956C65.1822 0.865044 62.7908 0.386765 48.2034 0.147629L35.9595 0.00415039L34.716 4.93039ZM59.395 7.75221C61.9299 8.61311 64.13 11.1958 63.9386 13.1089L63.7952 14.6394L54.3731 14.7829L44.9511 14.8785L44.4728 16.696C44.1859 17.6525 43.6119 20.0917 43.0858 22.0527L42.2249 25.6397L39.6901 25.7832C37.4422 25.9267 37.203 25.831 37.4422 25.0658C37.5857 24.5875 38.4466 21.1918 39.3553 17.509C40.3118 13.8263 41.3162 9.85662 41.6032 8.70876L42.1771 6.60435L49.8773 6.89132C54.134 7.0348 58.3906 7.41742 59.395 7.75221ZM59.7776 22.244C59.4429 22.6266 58.4863 23.2483 57.6254 23.6788C55.8558 24.5397 50.5469 25.9745 50.3078 25.6875C50.1643 25.5919 50.3556 24.6353 50.6426 23.5353L51.1687 21.5744H55.7601C59.6342 21.5744 60.2559 21.67 59.7776 22.244ZM72.3085 25.7354C73.0737 27.0745 73.1215 27.6006 72.6911 29.992C71.9258 34.153 70.778 35.9226 67.8127 37.7401C64.7517 39.6054 62.8386 40.2271 59.0124 40.5619C56.1427 40.8011 56.1427 40.8011 55.234 39.1749C52.6992 34.7748 51.5991 32.766 51.5991 32.5747C51.5991 32.3834 52.8426 32.0486 54.3731 31.7138C58.1037 30.9486 64.5604 27.218 66.7126 24.5875L68.4344 22.4831L69.9171 23.344C70.7302 23.8701 71.8302 24.9223 72.3085 25.7354Z" fill="#CC3100" fill-opacity="0.7"/>
</g>
<defs>
<clipPath id="clip0_518_2">
<rect width="102.667" height="74.6667" fill="white"/>
</clipPath>
</defs>
</svg>
