<svg width="97" height="64" viewBox="0 0 97 64" fill="none" xmlns="http://www.w3.org/2000/svg">
<path d="M72.5027 62.0919C72.5535 62.9187 73.2649 63.5479 74.0918 63.4971L87.5664 62.6701C88.3933 62.6194 89.0225 61.9079 88.9717 61.0811C88.921 60.2542 88.2095 59.625 87.3826 59.6758L75.4052 60.4109L74.6701 48.4334C74.6193 47.6066 73.9079 46.9774 73.081 47.0281C72.2541 47.0789 71.625 47.7903 71.6757 48.6172L72.5027 62.0919ZM0.472235 7.49958C0.771117 8.9695 0.77136 8.96945 0.772166 8.96929C0.773187 8.96908 0.774555 8.9688 0.776592 8.96839C0.780664 8.96757 0.786977 8.96629 0.795508 8.96457C0.812569 8.96113 0.838502 8.95592 0.87313 8.94901C0.942386 8.93519 1.04642 8.91456 1.18381 8.88766C1.45859 8.83388 1.86679 8.75508 2.39707 8.65567C3.45767 8.45684 5.00637 8.17564 6.95251 7.84741C10.8454 7.19084 16.3253 6.34667 22.6676 5.59715C35.3756 4.09535 51.4532 2.98529 65.1542 4.48685C72.0077 5.23796 78.1758 6.63371 83.0058 8.90175C87.8272 11.1657 91.188 14.2342 92.6974 18.2848C94.2087 22.3405 93.9793 27.6898 90.961 34.7574C87.9407 41.8296 82.1832 50.4822 72.8762 61.0063L75.1235 62.9937C84.5377 52.3484 90.5232 43.4208 93.7199 35.9356C96.9186 28.4457 97.3803 22.2602 95.5086 17.2373C93.635 12.2092 89.5387 8.65516 84.281 6.18624C79.0318 3.72137 72.4988 2.27382 65.4811 1.50471C51.4396 -0.034161 35.0946 1.10768 22.3155 2.61788C15.9142 3.37437 10.3844 4.22623 6.45359 4.88919C4.48785 5.22072 2.92114 5.50516 1.8443 5.70703C1.30586 5.80797 0.889835 5.88828 0.607574 5.94353C0.466442 5.97115 0.358745 5.99251 0.285904 6.00705C0.249483 6.01432 0.221775 6.01988 0.202957 6.02367C0.193548 6.02557 0.186362 6.02702 0.181421 6.02802C0.17895 6.02852 0.176932 6.02893 0.175695 6.02918C0.174242 6.02948 0.173352 6.02966 0.472235 7.49958Z" fill="#FD6916"/>
</svg>
