<svg width="773" height="60" viewBox="0 0 773 60" fill="none" xmlns="http://www.w3.org/2000/svg">
<path d="M29.4617 29.1469C28.2607 29.6719 27.5636 30.6844 27.4125 32.0906C27.2949 33.1969 27.8576 34.5 28.7394 35.175C30.3183 36.3844 32.4179 35.7281 33.241 33.7688C33.4341 33.3094 33.4677 33.1125 33.4677 32.3906C33.4677 31.6406 33.4425 31.4813 33.2074 30.9375C32.8043 30.0188 32.2416 29.4469 31.3765 29.1281C30.8306 28.9219 29.9656 28.9313 29.4617 29.1469Z" fill="#CC3100" fill-opacity="0.71"/>
<path d="M5.76139 29.3812C5.13151 29.8031 4.87116 30.675 5.1735 31.3219C5.91256 32.9344 7.93659 35.85 9.4819 37.5469L10.0866 38.2031L5.56823 38.25C0.537565 38.3062 0.755924 38.2687 0.285612 38.9531C-0.201497 39.675 0.00846354 40.7812 0.713932 41.2219L1.04987 41.4375H6.2401C11.1616 41.4375 11.4639 41.4469 12.203 41.6344C15.5372 42.4594 19.0141 42.9281 21.8108 42.9375C24.4899 42.9375 26.1612 42.6094 27.5469 41.8031C27.8997 41.6062 28.202 41.4375 28.2272 41.4375C28.2524 41.4375 28.6975 41.7094 29.2266 42.0469C30.478 42.8437 30.9987 43.0594 31.5362 43.0125C31.9393 42.9656 36.1889 41.3906 36.7852 41.0531C37.3731 40.725 37.709 40.0875 37.709 39.3094C37.7006 38.175 36.8272 37.2375 35.9538 37.4344C35.8194 37.4719 34.7612 37.8562 33.6022 38.2969L31.4942 39.1125L30.9231 38.7656C30.0413 38.2219 29.3274 37.6594 28.5967 36.9281C27.7485 36.0844 27.5805 35.9906 26.7995 35.9344C26.2368 35.8875 26.0352 35.925 25.1114 36.225C22.7598 36.9937 20.5846 37.3406 18.0147 37.3406C16.1587 37.35 15.0921 37.2375 13.9835 36.9281C12.9924 36.6469 12.7153 36.4781 11.9678 35.7187C10.6577 34.3875 9.4735 32.7937 8.18854 30.6187C7.80221 29.9812 7.41588 29.4375 7.27311 29.3344C6.89518 29.0719 6.18131 29.1 5.76139 29.3812Z" fill="#CC3100" fill-opacity="0.71"/>
<path d="M37.7679 32.4L35.5171 35.3625L35.9034 35.7375L36.2897 36.1219L36.1134 36.3281L35.937 36.5437L37.2892 37.8187C38.0366 38.5312 38.6749 39.0937 38.7169 39.075C38.7589 39.0562 39.7331 37.8 40.8921 36.2812C42.7313 33.8625 42.9749 33.4969 42.8993 33.3281C42.8321 33.1969 40.6905 30.3 40.069 29.5125C40.0354 29.475 39.0024 30.7781 37.7679 32.4ZM40.9761 31.2281C41.4632 31.8656 41.7823 32.325 41.6983 32.2406C41.606 32.1656 41.2532 31.8375 40.9173 31.5187C40.5813 31.2 40.279 30.9375 40.2454 30.9469C40.2118 30.9469 39.3636 32.0437 38.3474 33.3844C37.3396 34.7156 36.4913 35.8125 36.4577 35.8125C36.4325 35.8125 36.2981 35.7 36.1722 35.5687L35.9286 35.3344L36.1302 35.0625C37.0456 33.7687 39.9515 30.0187 40.0187 30.0375C40.0606 30.0469 40.489 30.5812 40.9761 31.2281Z" fill="#CC3100" fill-opacity="0.71"/>
<path d="M203.577 14.0703C204.765 14.5375 205.547 15.675 205.547 16.9141C205.547 17.8281 205.313 18.4375 204.724 19.0875C203.871 20.0219 202.642 20.3266 201.413 19.9203C199.829 19.3922 198.945 17.4828 199.555 15.8781C199.819 15.1672 200.489 14.4461 201.159 14.1516C201.85 13.8367 202.916 13.8063 203.577 14.0703Z" fill="#CC3100" fill-opacity="0.71"/>
<path d="M186.189 14.3953C186.534 15.2281 186.829 16.3859 186.738 16.5484C186.656 16.6906 186.443 16.7109 185.306 16.7109C183.965 16.7109 183.711 16.65 183.711 16.3453C183.711 16.1422 185.681 14.0703 185.874 14.0703C185.986 14.0703 186.108 14.2023 186.189 14.3953Z" fill="#CC3100" fill-opacity="0.71"/>
<path d="M189.043 17.168C189.266 17.2492 189.53 17.4117 189.622 17.5234C189.794 17.7367 191.937 24.0539 191.937 24.3586C191.937 24.4601 191.897 24.5312 191.836 24.5312C191.785 24.5312 191.623 24.7039 191.48 24.907C191.013 25.5976 191.206 26.6539 191.876 27.0601C192.049 27.1617 193.055 27.5578 194.121 27.9336C195.177 28.3094 196.081 28.6445 196.122 28.6851C196.193 28.7461 196.041 29.4875 195.949 29.5891C195.929 29.6094 194.71 29.2336 193.248 28.7461C191.034 28.0148 190.516 27.8726 190.18 27.9234C189.348 28.0555 189.002 28.3805 188.088 29.8531C187.794 30.3406 187.53 30.7164 187.509 30.6961C187.398 30.5945 183.305 17.9094 183.305 17.6961C183.305 17.5641 183.396 17.3711 183.518 17.2594C183.711 17.0867 183.934 17.0664 186.189 17.0461C188.109 17.0258 188.728 17.0461 189.043 17.168Z" fill="#CC3100" fill-opacity="0.71"/>
<path d="M208.177 18.2852C208.421 18.3562 208.726 18.5289 208.868 18.6609C209.193 18.9555 209.498 19.6156 209.508 20.0016C209.508 20.2859 205.598 36.0586 205.283 37.0336C205.12 37.5414 204.643 38.0695 204.196 38.232C204.003 38.3031 201.88 38.3438 197.869 38.3438H191.836V36.4648V34.5859H196.853C200.743 34.5859 201.891 34.5555 201.972 34.4539C202.023 34.393 202.876 31.1125 203.871 27.1719C204.856 23.2312 205.709 19.8391 205.76 19.6258C206.024 18.6 207.162 17.9703 208.177 18.2852Z" fill="#CC3100" fill-opacity="0.71"/>
<path d="M202.398 20.8851C203.241 21.2609 203.861 22.0226 204.115 22.9875C204.226 23.3836 204.155 23.7391 202.906 28.6648C202.185 31.5492 201.586 33.9258 201.586 33.9461C201.586 33.9562 200.916 33.9766 200.093 33.9766H198.59L194.883 32.7375C192.831 32.057 191.094 31.5289 191.013 31.5594C190.932 31.5898 189.957 33.0523 188.84 34.7992C185.62 39.8672 185.803 39.6234 185.275 39.8266C184.858 39.9891 184.798 39.9891 184.371 39.8266C183.548 39.5016 183.264 38.6078 183.741 37.7851C184.432 36.5969 189.256 29.1117 189.5 28.8578C190.018 28.3195 190.333 28.3703 193.39 29.3961C194.893 29.8937 196.173 30.2898 196.254 30.2594C196.325 30.2289 196.467 29.9141 196.569 29.5484C196.66 29.193 196.772 28.8984 196.802 28.8984C196.833 28.8984 197.432 29.1016 198.133 29.3555C198.894 29.6297 199.585 29.8125 199.849 29.8125C200.367 29.8125 200.855 29.5484 201.088 29.132C201.332 28.7258 202.835 23.6476 202.754 23.5156C202.723 23.4648 202.601 23.4141 202.5 23.4141C202.287 23.4141 202.287 23.4242 201.2 27.0601C200.916 27.9945 200.611 28.8375 200.499 28.9594C200.083 29.4266 199.981 29.4062 196.071 28.025C194.05 27.3141 192.293 26.6641 192.181 26.593C191.887 26.4101 191.694 25.9226 191.775 25.5875C191.876 25.1812 192.283 24.8359 192.669 24.8359C192.851 24.8359 194.355 25.3133 196 25.9023C198.427 26.7656 199.016 26.9383 199.118 26.8367C199.24 26.7148 200.367 23.1094 200.367 22.8453C200.367 22.6625 200.042 22.5812 199.91 22.7234C199.839 22.7945 199.575 23.607 199.301 24.5312C199.037 25.4555 198.803 26.2273 198.783 26.2476C198.762 26.268 198.468 26.1766 198.133 26.0547C197.605 25.8617 197.523 25.8008 197.584 25.618C197.615 25.5062 197.818 24.7648 198.021 23.9726C198.234 23.1703 198.529 22.3172 198.681 22.0531C198.976 21.5555 199.626 21.0172 200.194 20.8039C200.733 20.6109 201.88 20.6516 202.398 20.8851Z" fill="#CC3100" fill-opacity="0.71"/>
<path d="M194.02 33.0625L196.66 33.9562L194.121 33.9664C192.72 33.9766 191.531 34.0172 191.46 34.0578C191.369 34.1187 191.328 35.2766 191.308 38.6484L191.277 43.168L191.034 43.5133C190.78 43.8687 190.282 44.1328 189.886 44.1328C189.51 44.1328 188.972 43.7875 188.769 43.4117C188.606 43.0969 188.586 42.7719 188.586 39.6641V36.2617L189.886 34.2102C190.597 33.0828 191.216 32.1586 191.277 32.1586C191.328 32.1586 192.567 32.5648 194.02 33.0625Z" fill="#CC3100" fill-opacity="0.71"/>
<path d="M203.617 39.075C203.617 39.6742 202.998 43.9703 202.896 44.0922C202.825 44.1734 202.581 44.2344 202.337 44.2344C201.962 44.2344 201.87 44.1937 201.789 44.0008C201.738 43.8789 201.576 42.843 201.434 41.6953C201.291 40.5477 201.149 39.4406 201.119 39.2273L201.058 38.8516H202.337C203.597 38.8516 203.617 38.8516 203.617 39.075Z" fill="#CC3100" fill-opacity="0.71"/>
<path d="M755.911 3.06406C755.863 3.14414 754.582 9.92676 754.582 10.0949C754.582 10.159 754.654 10.207 754.742 10.207C754.83 10.207 754.902 10.191 754.902 10.167C754.902 10.143 755.279 8.54141 755.743 6.60352C756.208 4.67363 756.584 3.07207 756.584 3.04805C756.584 2.97598 755.959 2.99199 755.911 3.06406Z" fill="#CC3100" fill-opacity="0.71"/>
<path d="M758.257 7.98086C756.231 10.4232 755.879 10.8877 755.991 10.9518C756.095 11.0158 756.592 10.5594 758.714 8.4373C760.139 7.01191 761.308 5.81074 761.308 5.76269C761.3 5.68262 760.78 5.08203 760.708 5.08203C760.684 5.08203 759.587 6.3873 758.257 7.98086Z" fill="#CC3100" fill-opacity="0.71"/>
<path d="M742.338 7.53244C741.441 7.98088 741.065 9.14201 740.929 11.8486C740.889 12.8176 740.977 15.4121 741.097 16.7574C741.153 17.382 741.321 17.7184 741.689 17.9826C741.818 18.0787 742.883 18.343 744.596 18.7113L747.295 19.2879V22.1467V25.0055L747.559 25.0535C747.695 25.0776 749.529 25.3498 751.619 25.6621C753.709 25.9664 755.503 26.2387 755.607 26.2627C755.775 26.3028 755.783 26.2867 755.783 25.7822V25.2617H753.581C752.372 25.2617 751.379 25.2457 751.379 25.2217C751.379 25.2057 751.459 25.0215 751.555 24.8213L751.731 24.4529L751.507 24.2768L751.283 24.0926L752.7 21.482L754.118 18.8715L754.494 18.8154C754.974 18.7514 755.991 18.8875 756.8 19.1278L757.425 19.3119L757.473 19.0877C757.537 18.7834 757.937 18.2149 758.049 18.2549C758.105 18.2709 758.242 18.3029 758.362 18.327L758.586 18.375L758.25 19.0557L757.913 19.7363L756.864 19.6723C756.296 19.6403 755.575 19.6162 755.279 19.6162H754.734L753.381 22.1787C752.628 23.5881 752.02 24.7653 752.02 24.8053C752.02 24.8373 752.964 24.8533 754.126 24.8453C756.12 24.8213 756.224 24.8133 756.224 24.6692C756.224 24.557 756.047 24.4449 755.527 24.2207C755.143 24.0526 754.718 23.8363 754.582 23.7403C753.837 23.2117 753.789 21.9545 754.494 21.3139C755.127 20.7453 755.655 20.7293 756.816 21.2498C757.225 21.426 757.609 21.5781 757.657 21.5781C757.785 21.5781 759.411 18.1588 759.339 18.0467C759.315 17.9987 759.163 17.9746 759.002 17.9906C758.85 18.0147 758.538 17.9826 758.314 17.9266L757.905 17.8385L757.609 18.1188L757.313 18.399L756.928 18.1508C756.456 17.8545 755.543 17.4141 755.391 17.4141C755.327 17.4141 755.183 17.5022 755.071 17.6063C754.462 18.1828 753.333 18.6153 752.444 18.6153C751.571 18.6153 750.482 18.1668 749.841 17.5342L749.481 17.1738L746.542 16.5412C744.925 16.1969 743.587 15.8926 743.563 15.8766C743.475 15.7805 743.435 11.7606 743.523 10.8557L743.611 9.86271L743.924 9.57443C744.092 9.41428 744.276 9.15002 744.332 8.98185C744.588 8.18107 743.932 7.33224 743.043 7.32424C742.891 7.32424 742.57 7.42033 742.338 7.53244Z" fill="#CC3100" fill-opacity="0.71"/>
<path d="M760.268 10.7196C758.442 11.4403 756.937 12.0649 756.92 12.1209C756.904 12.169 756.945 12.233 757.017 12.2571C757.113 12.2971 763.887 10.111 764.023 9.99885C764.063 9.96682 763.703 9.40627 763.647 9.41428C763.615 9.41428 762.094 10.0069 760.268 10.7196Z" fill="#CC3100" fill-opacity="0.71"/>
<path d="M751.371 11.3521C749.865 11.8646 748.952 13.1619 748.968 14.7715C748.976 15.9566 749.585 17.0537 750.594 17.7023C751.523 18.2949 752.956 18.391 753.941 17.9266C756.216 16.8535 756.728 13.9066 754.95 12.1689C753.997 11.248 752.612 10.9277 751.371 11.3521ZM753.765 15.1398C754.206 15.6283 753.773 16.8855 753.044 17.2619C752.644 17.4701 752.532 17.4541 752.252 17.1818C751.995 16.9176 751.947 16.5812 752.116 16.0447C752.228 15.6523 752.692 15.1078 753.012 14.9637C753.317 14.8355 753.525 14.8836 753.765 15.1398Z" fill="#CC3100" fill-opacity="0.71"/>
<path d="M758.474 20.9455C758.258 21.3859 758.122 21.7783 758.162 21.8104C758.194 21.8504 758.466 21.9785 758.77 22.0986C759.067 22.2188 759.307 22.3629 759.307 22.4109C759.299 22.6992 759.131 22.6512 757.585 21.9705C756.288 21.402 755.903 21.2658 755.583 21.2658C754.446 21.2498 753.918 22.6271 754.758 23.3959C755.039 23.6602 759.291 25.502 759.611 25.502C759.987 25.502 760.46 25.2297 760.668 24.9014C760.948 24.4529 760.868 23.8363 760.396 22.7152C760.003 21.8023 759.099 20.2088 758.938 20.1607C758.89 20.1447 758.682 20.4971 758.474 20.9455Z" fill="#CC3100" fill-opacity="0.71"/>
<path d="M746.542 25.6221C746.094 25.7822 745.686 26.1426 745.453 26.591C745.189 27.1035 745.181 27.8723 745.437 28.3527C745.653 28.7691 746.158 29.2096 746.55 29.3297C746.999 29.4578 755.968 30.7871 756.408 30.7871C756.888 30.7871 757.521 30.4988 757.817 30.1385C758.65 29.1535 758.338 27.616 757.185 27.0715C756.904 26.9354 747.647 25.502 747.111 25.502C746.967 25.51 746.719 25.558 746.542 25.6221Z" fill="#CC3100" fill-opacity="0.71"/>
<path d="M745.854 29.5539C745.854 29.6981 746.542 30.4988 746.911 30.7951C747.952 31.6199 749.201 32.0203 751.107 32.1404C751.996 32.1965 752.124 32.2205 752.476 32.4367C752.916 32.709 753.357 33.2615 753.573 33.8061C753.789 34.3666 753.837 36.0242 753.669 37.0332C753.501 37.9861 753.165 39.1713 752.7 40.4125C752.276 41.5416 752.244 41.982 752.532 42.5986C752.908 43.4154 753.797 43.8719 754.654 43.6957C755.167 43.5836 755.655 43.2713 755.911 42.8789C756.368 42.1902 757.257 39.3795 757.553 37.6979C757.777 36.4486 757.793 34.5508 757.593 33.6379C757.417 32.8451 757.048 31.8281 756.824 31.5078C756.688 31.3156 756.592 31.2676 756.352 31.2676C756.079 31.2676 749.193 30.2666 747.223 29.9463C746.814 29.8742 746.334 29.7461 746.166 29.658C745.99 29.5699 745.854 29.5299 745.854 29.5539Z" fill="#CC3100" fill-opacity="0.71"/>
<path d="M746.462 31.2356C746.294 31.668 746.558 32.0684 747.015 32.0684C747.271 32.0684 747.287 32.0844 747.247 32.2846C747.223 32.4127 746.799 35.0473 746.31 38.1543C745.525 43.0391 745.421 43.8078 745.533 43.8479C745.597 43.8719 745.822 43.9199 746.022 43.944L746.39 43.992L746.614 42.5746C746.735 41.7979 746.855 41.0131 746.887 40.8369L746.943 40.5166L749.553 40.4926L752.164 40.4766L752.364 39.932L752.564 39.3955L749.85 39.3715C748.352 39.3635 747.135 39.3395 747.135 39.3315C747.135 39.3154 747.391 37.7299 747.695 35.8C748.008 33.8701 748.256 32.2445 748.256 32.1965C748.256 32.1404 748.032 31.9883 747.76 31.8602C747.487 31.732 747.103 31.5078 746.919 31.3637C746.518 31.0674 746.526 31.0674 746.462 31.2356Z" fill="#CC3100" fill-opacity="0.71"/>
<path d="M571.414 13.0656C570.445 13.326 569.701 14.1736 569.531 15.2029C569.295 16.6863 570.415 18.1213 571.886 18.2182C572.462 18.2605 572.879 18.1758 573.376 17.9094C574.623 17.2615 575.12 15.7418 574.514 14.4582C573.969 13.3078 572.679 12.7266 571.414 13.0656Z" fill="#CC3100" fill-opacity="0.71"/>
<path d="M563.604 17.9154C562.926 18.5814 562.804 18.7207 562.774 18.9205C562.744 19.1082 562.853 19.4775 563.368 20.973C563.973 22.7168 564.003 22.7955 564.191 22.8863C564.373 22.9711 564.463 22.965 565.644 22.7289C566.334 22.5896 567.079 22.4443 567.297 22.408C567.515 22.3656 567.697 22.3293 567.709 22.3232C567.727 22.3051 566.922 19.7258 566.474 18.3514L566.322 17.8851L566.032 17.8488C565.826 17.8246 565.65 17.8428 565.39 17.9336C565.196 18.0002 565.02 18.0547 565.002 18.0547C564.984 18.0547 564.857 17.8488 564.73 17.6006C564.597 17.3523 564.469 17.1465 564.445 17.1465C564.421 17.1465 564.04 17.4916 563.604 17.9154Z" fill="#CC3100" fill-opacity="0.71"/>
<path d="M571.263 18.6178C570.203 18.8902 569.392 19.7803 569.229 20.8519C569.174 21.2213 568.72 27.6816 568.647 29.165C568.623 29.7281 568.635 29.9764 568.714 30.273C568.89 30.9633 569.319 31.5203 569.949 31.8775C570.252 32.0471 570.27 32.0713 570.24 32.2469C570.155 32.7191 570.076 35.1289 570.113 36.0371C570.203 38.241 570.609 40.6205 570.997 41.2078C571.463 41.9041 572.547 41.9889 573.073 41.3592C573.449 40.9111 573.503 40.5055 573.297 39.6941C572.928 38.2471 572.777 36.5881 572.825 34.4145C572.861 32.6162 572.946 31.708 573.104 31.5324C573.182 31.4416 573.201 31.266 573.213 30.5637C573.225 29.2922 573.515 28.3537 573.927 28.2508C574.072 28.2144 574.078 28.1963 574.072 27.718V27.2275L573.788 27.0459C573.431 26.8158 573.237 26.4465 573.231 25.9984C573.231 25.4414 573.437 25.1023 573.994 24.7391L574.309 24.5393L574.351 23.6432C574.369 23.1527 574.399 22.7107 574.418 22.6623C574.448 22.5654 575.09 23.1648 575.659 23.8127L575.955 24.1578L575.429 24.4363C573.824 25.2779 573.745 25.3385 573.679 25.7562C573.624 26.059 573.836 26.4828 574.115 26.6584C574.502 26.8945 574.763 26.8219 576.119 26.065C576.779 25.6957 577.457 25.3264 577.627 25.2416C578.153 24.9752 578.389 24.5756 578.286 24.1033C578.25 23.952 577.717 23.3707 575.974 21.5906C574.726 20.3191 573.564 19.1748 573.394 19.0598C572.765 18.6238 571.917 18.4482 571.263 18.6178Z" fill="#CC3100" fill-opacity="0.71"/>
<path d="M568.556 22.402C568.375 22.7107 567.872 23.1285 567.594 23.2012C567.285 23.2859 567.067 23.2496 566.661 23.0498L566.358 22.8984L565.329 23.0982L564.3 23.298L564.754 23.7521C565.275 24.2668 565.813 24.6482 566.316 24.848C566.595 24.957 566.782 24.9813 567.297 24.9873C568.12 24.9873 568.49 24.8662 568.532 24.5756C568.574 24.2789 568.702 22.2809 568.677 22.2566C568.665 22.2445 568.611 22.3111 568.556 22.402Z" fill="#CC3100" fill-opacity="0.71"/>
<path d="M578.692 24.8238C578.656 24.951 578.534 25.1387 578.426 25.2416C578.317 25.3506 577.529 25.8168 576.682 26.277C575.774 26.7734 575.132 27.1609 575.12 27.2215C575.095 27.3365 575.374 27.9602 575.513 28.1176C575.604 28.2205 575.992 28.2266 582.936 28.2266C589.887 28.2266 590.256 28.2205 590.214 28.1176C589.905 27.385 589.784 26.7008 589.845 26.0287C589.881 25.6533 590.032 25.1023 590.208 24.6967C590.256 24.5998 589.96 24.5938 584.51 24.5938H578.759L578.692 24.8238Z" fill="#CC3100" fill-opacity="0.71"/>
<path d="M573.909 28.935C573.57 29.7342 573.57 31.0541 573.909 31.9623L574.024 32.2832H579.57H585.11L585.073 32.1439C584.849 31.3629 584.831 31.2479 584.831 30.4668C584.831 29.6857 584.849 29.5707 585.073 28.7836L585.11 28.6504H579.57H574.03L573.909 28.935Z" fill="#CC3100" fill-opacity="0.71"/>
<path d="M568.417 31.2902C567.558 33.3488 566.97 36.2974 566.686 39.9545L566.607 40.9353L566.789 41.2865C567.194 42.0736 568.175 42.2674 568.817 41.6861C569.204 41.3349 569.235 41.226 569.362 39.8576C569.422 39.1734 569.519 38.2834 569.58 37.8838C569.646 37.3752 569.683 36.6849 569.689 35.583C569.695 34.7172 569.719 33.6273 569.743 33.1611L569.786 32.3135L569.465 32.0894C569.283 31.9683 569.017 31.7141 568.871 31.5142C568.726 31.3205 568.587 31.1389 568.563 31.1086C568.538 31.0783 568.472 31.1631 568.417 31.2902Z" fill="#CC3100" fill-opacity="0.71"/>
<path d="M575.422 32.9613C575.156 33.4094 575.077 33.7848 575.083 34.6143C575.083 35.4377 575.156 35.7707 575.422 36.2006L575.543 36.4004H582.9C589.887 36.4004 590.256 36.3943 590.208 36.2914C589.923 35.6375 589.857 35.3287 589.857 34.584C589.857 33.8393 589.923 33.5305 590.208 32.8705C590.256 32.7736 589.887 32.7676 582.9 32.7676H575.543L575.422 32.9613Z" fill="#CC3100" fill-opacity="0.71"/>
<path d="M573.812 37.024C573.309 37.684 573.243 39.1553 573.672 40.0332L573.866 40.4268L581.235 40.4449L588.603 40.457L588.488 40.1846C588.077 39.2279 588.113 37.9867 588.573 36.9271C588.621 36.8303 588.252 36.8242 581.295 36.8242H573.963L573.812 37.024Z" fill="#CC3100" fill-opacity="0.71"/>
<path d="M380.543 0.0480714C380.362 0.072681 380.297 0.146509 380.239 0.3844C379.312 3.92815 378.837 5.83948 378.861 5.86409C378.878 5.8887 379.058 5.83127 379.263 5.74104C379.887 5.47854 380.485 5.3801 381.347 5.42112C382.052 5.44573 382.233 5.48674 382.692 5.70823C382.987 5.85588 383.398 6.14299 383.611 6.35627L384.005 6.74182L384.39 6.35627C384.612 6.14299 385.022 5.85588 385.317 5.71643C385.776 5.48674 385.957 5.44573 386.662 5.42112C387.524 5.3801 388.123 5.47854 388.746 5.74104C388.951 5.83127 389.132 5.8887 389.148 5.86409C389.189 5.83127 387.729 0.162915 387.663 0.0972905C387.647 0.080884 387.36 0.0398684 387.023 0.0152593C386.072 -0.058569 385.219 0.212134 384.382 0.851978L383.996 1.14729L383.652 0.860181C382.791 0.171118 381.675 -0.124194 380.543 0.0480714Z" fill="#CC3100" fill-opacity="0.7"/>
<path d="M377.943 4.27269C377.344 6.36449 376.843 8.13637 376.819 8.2184C376.778 8.34145 376.901 8.30043 377.434 8.03793C378.501 7.49652 379.198 7.33246 380.395 7.34066C381.527 7.34066 382.02 7.47191 382.799 7.98051L383.193 8.2348L381.651 8.28402C380.806 8.31683 379.944 8.38246 379.739 8.43168C379.099 8.60394 378.402 9.03051 377.803 9.62933C376.22 11.1961 375.351 13.9278 375.055 18.2426C374.949 19.8504 375.006 24.1407 375.145 24.6246C375.424 25.5762 376.671 25.9371 377.451 25.2809C377.935 24.8707 377.951 24.7477 377.893 22.2293C377.795 18.2836 378.131 15.1993 378.861 13.2879L379.042 12.8286L379.083 26.5278L379.124 40.227L379.321 40.6618C379.674 41.4493 380.527 41.9907 381.388 41.9907C381.921 41.9907 382.553 41.6953 382.963 41.2606C383.627 40.5469 383.595 41.0801 383.595 31.7203V23.4516H384.005H384.415V31.7203C384.415 41.0801 384.382 40.5469 385.047 41.2606C385.457 41.6953 386.088 41.9907 386.622 41.9907C387.483 41.9907 388.336 41.4493 388.689 40.6618L388.886 40.227L388.927 26.5278C388.96 14.9942 388.984 12.8778 389.074 13.1157C389.493 14.2067 389.804 15.6504 390.01 17.3813C390.067 17.9063 390.108 19.5141 390.108 21.4828C390.116 24.9774 390.108 24.8953 390.567 25.2891C391.338 25.9371 392.585 25.568 392.864 24.6082C393.004 24.1407 393.061 19.8258 392.954 18.2426C392.659 13.9442 391.781 11.1961 390.206 9.62933C389.124 8.55473 388.287 8.27582 386.121 8.27582H384.801L385.014 8.11176C385.367 7.83285 386.236 7.46371 386.753 7.36527C387.852 7.16019 389.361 7.4227 390.576 8.03793C391.109 8.30043 391.232 8.34145 391.191 8.2184C391.166 8.13637 390.666 6.36449 390.067 4.27269C389.025 0.614101 388.976 0.482849 388.787 0.482849C388.631 0.482849 388.599 0.515663 388.631 0.622303C388.656 0.704334 389.025 2.13168 389.46 3.80511C389.895 5.47035 390.264 6.9059 390.288 6.98793C390.329 7.11098 390.198 7.06996 389.665 6.79926C387.549 5.73285 385.711 5.95433 384.358 7.4391L384.005 7.82465L383.619 7.39809C383.078 6.82387 382.602 6.49574 381.97 6.30707C380.92 5.97894 379.624 6.15941 378.345 6.79926C377.811 7.06996 377.68 7.11098 377.721 6.98793C377.746 6.9059 378.115 5.47035 378.55 3.80511C378.985 2.13168 379.354 0.704334 379.378 0.622303C379.411 0.515663 379.378 0.482849 379.222 0.482849C379.034 0.482849 378.985 0.614101 377.943 4.27269Z" fill="#CC3100" fill-opacity="0.7"/>
</svg>
