<svg width="38" height="37" viewBox="0 0 38 37" fill="none" xmlns="http://www.w3.org/2000/svg">
<g clip-path="url(#clip0_534_15)">
<path d="M22.5476 3.855C22.4132 3.90479 22.2339 3.9934 22.1459 4.04647C21.9929 4.13612 22.0831 4.19771 26.9571 7.23803C29.6935 8.94049 31.9538 10.3398 31.9813 10.3467C32.1754 10.3703 32.0816 9.08598 31.852 8.56636C31.7819 8.40404 31.602 8.11119 31.4547 7.92115C31.2113 7.60403 30.9111 7.40068 28.3145 5.78064C26.7326 4.78533 25.273 3.91816 25.0615 3.83725C24.8511 3.76219 24.494 3.67261 24.2724 3.64206C23.8241 3.58802 22.9358 3.69637 22.5476 3.855Z" fill="#DE5D35"/>
<path d="M19.6215 5.00505C19.2064 5.22934 18.8749 5.58311 18.2336 6.47428C17.3491 7.70243 17.2056 8.11733 17.4029 8.87932C17.6186 9.70441 17.4212 9.56025 22.7776 12.9025C28.2898 16.3424 27.9647 16.1801 29.0059 15.9821C29.883 15.8153 30.0932 15.6481 31.0594 14.3681C31.8789 13.2795 32.0327 12.9535 32.0381 12.3286C32.0423 11.9038 31.8776 11.4506 31.5704 11.0729C31.4061 10.8619 30.406 10.2102 26.8913 8.02583C24.4295 6.49525 22.1873 5.12278 21.8994 4.98373C21.5902 4.83658 21.2477 4.72002 21.0684 4.70566C20.6434 4.6714 19.9894 4.80789 19.6215 5.00505Z" fill="#DE5D35"/>
<path d="M16.5799 16.5523L13.2368 21.0462L15.6415 22.5513L18.0388 24.0517L21.4049 19.5413L24.771 15.0309L22.3738 13.5305C21.0601 12.7082 19.9713 12.037 19.9535 12.0465C19.9345 12.0501 18.4173 14.0769 16.5799 16.5523Z" fill="#DE5D35"/>
<path d="M8.3296 20.2714C8.19225 20.3399 7.96616 20.492 7.83658 20.6014C7.48017 20.8933 6.15301 22.7507 6.05008 23.1034C5.92374 23.5393 5.93027 23.9862 6.08492 24.3869C6.35119 25.0994 6.27586 25.0471 11.4137 28.2371C16.894 31.6467 16.5763 31.489 17.6301 31.2886C18.5577 31.1122 18.7449 30.9616 19.7129 29.657C20.6591 28.3747 20.7557 28.1262 20.6045 27.3312C20.4222 26.3726 20.6994 26.5924 15.2157 23.1653C9.80739 19.7905 10.0467 19.9146 9.09354 20.0595C8.7758 20.1078 8.48367 20.1876 8.3296 20.2714Z" fill="#DE5D35"/>
<path d="M5.91986 25.9264C5.8957 26.04 5.91302 26.4061 5.96265 26.7359C6.05521 27.4633 6.28852 27.9337 6.7746 28.3925C7.1798 28.7697 12.5043 32.0817 12.9812 32.2514C13.6336 32.4847 14.05 32.5085 14.8251 32.355C15.5129 32.2242 16.0051 32.0276 15.9439 31.9121C15.9246 31.8794 14.3152 30.8772 12.3551 29.6813C10.4013 28.4841 8.18324 27.101 7.42807 26.6026C6.67402 26.11 6.03573 25.7105 6.01049 25.7153C5.98525 25.7201 5.94513 25.8186 5.91986 25.9264Z" fill="#DE5D35"/>
</g>
<defs>
<clipPath id="clip0_534_15">
<rect width="32.8876" height="30.4648" fill="white" transform="translate(0 6.14407) rotate(-10.7673)"/>
</clipPath>
</defs>
</svg>
