<svg width="87" height="68" viewBox="0 0 87 68" fill="none" xmlns="http://www.w3.org/2000/svg">
<path d="M8.85792 67.4267C9.37841 68.0712 10.3228 68.1718 10.9673 67.6513L21.4701 59.1694C22.1146 58.6489 22.2151 57.7045 21.6946 57.06C21.1742 56.4155 20.2297 56.315 19.5852 56.8355L10.2494 64.3749L2.71002 55.0391C2.18954 54.3946 1.24512 54.2941 0.600621 54.8145C-0.0438811 55.335 -0.144415 56.2794 0.376073 56.9239L8.85792 67.4267ZM85.4586 0.220105C84.699 0.577805 83.0497 1.17158 80.5771 2.06976C78.1528 2.9504 75.0389 4.08886 71.4759 5.50387C64.3527 8.3328 55.4139 12.2748 46.5262 17.5069C28.8305 27.9242 10.9426 43.6928 8.53332 66.3255L11.5165 66.6431C13.768 45.4922 30.5539 30.3909 48.0481 20.0922C56.7554 14.9663 65.5406 11.0889 72.5832 8.29204C76.1032 6.89414 79.1827 5.76808 81.6014 4.88949C83.9718 4.02844 85.815 3.36827 86.7367 2.93419L85.4586 0.220105Z" fill="#FD6916"/>
</svg>
