<svg width="174" height="60" viewBox="0 0 174 60" fill="none" xmlns="http://www.w3.org/2000/svg">
<path d="M0.211079 50.7333C-0.212384 51.4453 0.0215373 52.3658 0.733556 52.7892L12.3366 59.6899C13.0486 60.1134 13.9691 59.8795 14.3925 59.1675C14.816 58.4554 14.5821 57.535 13.8701 57.1115L3.55627 50.9775L9.69025 40.6637C10.1137 39.9517 9.87979 39.0312 9.16777 38.6078C8.45575 38.1843 7.53526 38.4182 7.1118 39.1302L0.211079 50.7333ZM171.485 0.653457C169.73 3.0146 165.951 5.6415 160.366 8.41557C154.842 11.1592 147.761 13.9477 139.638 16.7176C123.396 22.2556 103.128 27.6718 83.1255 32.4789C63.1299 37.2844 43.4311 41.4738 28.3388 44.5613C13.3099 47.6357 2.72858 49.6402 1.13086 50.0462L1.86975 52.9538C3.37937 52.5702 13.7672 50.6043 28.9401 47.5004C44.0495 44.4095 63.7848 40.2124 83.8265 35.3959C103.861 30.581 124.234 25.1396 140.606 19.557C148.79 16.7666 156.009 13.9291 161.7 11.1024C167.33 8.30626 171.681 5.41873 173.893 2.44282L171.485 0.653457Z" fill="#FD6916"/>
</svg>
