<svg width="208" height="44" viewBox="0 0 208 44" fill="none" xmlns="http://www.w3.org/2000/svg">
<path d="M93.9358 0.0370893C92.6889 0.263456 91.7946 1.32107 91.7872 2.56795C91.7835 3.15057 91.9208 3.61443 92.2251 4.06346C92.9598 5.14705 94.3811 5.5033 95.576 4.90955C95.988 4.70174 96.4741 4.21189 96.6819 3.78514C97.0159 3.10603 97.0604 2.49744 96.8378 1.77752C96.7302 1.42869 96.5223 1.09471 96.2069 0.775566C95.7319 0.293144 95.1604 0.0408006 94.4813 0.0185347C94.2772 0.0111127 94.0323 0.0185347 93.9358 0.0370893Z" fill="#CC3100" fill-opacity="0.71"/>
<path d="M87.9391 2.66072C87.8983 2.69783 87.5346 3.3992 87.1338 4.2156C86.477 5.55896 86.4065 5.71482 86.4473 5.79275C86.4733 5.83728 87.0299 6.4867 87.6867 7.2326C88.3399 7.97849 88.993 8.72439 89.134 8.88767C89.275 9.05096 89.4197 9.19939 89.4569 9.21795C89.5088 9.24393 89.5756 9.21795 89.724 9.12146L89.9207 8.98787L90.0654 9.0658C90.3772 9.22537 91.0266 9.49998 91.3012 9.58904C92.1102 9.8451 92.9229 9.82654 93.6762 9.53709C93.9916 9.41463 94.5445 9.09549 94.834 8.86541C94.9379 8.78377 95.0381 8.72439 95.0492 8.73924C95.0789 8.76892 95.8656 10.7765 95.8545 10.7914C95.8471 10.7988 95.643 10.7357 95.3944 10.6504C94.6076 10.3906 94.3627 10.3424 93.7393 10.3387C93.1047 10.3349 92.8227 10.398 92.4664 10.6244C91.4682 11.2553 90.4625 13.1849 89.468 16.3838C89.1748 17.3226 89.1414 17.5898 89.2676 17.9572C89.4086 18.3803 89.661 18.6697 90.0469 18.8478C90.225 18.9332 90.2992 18.9443 90.6444 18.9443C91.0154 18.9443 91.0451 18.9369 91.2826 18.8181C91.7094 18.6029 91.9172 18.3135 92.1028 17.6826C92.626 15.9236 93.3533 14.0793 93.7912 13.389L93.9026 13.2146L94.2106 13.3111C94.3813 13.3631 94.5891 13.4336 94.6744 13.467L94.8303 13.5263L94.5854 13.8974C94.218 14.4615 93.7393 15.4523 93.1529 16.8847C92.9748 17.3189 92.96 17.3709 92.96 17.664C92.96 18.076 93.0824 18.3617 93.3756 18.6289C93.6576 18.8887 93.91 18.974 94.3145 18.9554C94.7004 18.9332 94.9231 18.8404 95.1791 18.5844C95.3758 18.3877 95.3944 18.3506 95.836 17.2744C96.2553 16.2502 96.593 15.5748 96.9492 15.0367C97.1904 14.673 97.2647 14.584 97.3129 14.6062C97.8695 14.8474 98.7973 15.1517 99.1869 15.2148C99.5395 15.2705 100.096 15.2594 100.33 15.1926C101.109 14.9625 101.688 14.3019 101.888 13.4224C102.004 12.9178 101.97 12.2015 101.807 11.6338C101.696 11.2404 99.7473 5.77791 99.6508 5.58865C99.2055 4.70545 97.9029 4.20076 96.7451 4.47166C96.0772 4.62381 95.8285 4.80193 94.667 5.93748C94.1586 6.43846 93.6354 6.9283 93.5092 7.02478C93.0231 7.39588 92.6371 7.53318 92.2326 7.47381L91.9988 7.44041L92.3774 7.1658C92.5852 7.01365 92.7633 6.85779 92.7781 6.82068C92.7893 6.77986 92.7707 6.70564 92.7336 6.64998C92.6371 6.50154 90.0024 3.13943 89.9578 3.10975C89.8651 3.04295 89.75 3.0949 89.4012 3.36209L89.0338 3.64783L88.8445 3.42889C88.3102 2.81658 88.1246 2.61619 88.0727 2.60506C88.043 2.59764 87.9836 2.62361 87.9391 2.66072ZM88.7369 3.88162C88.6293 3.98182 87.1375 5.11736 87.1264 5.10623C87.119 5.09881 87.3305 4.64978 87.6014 4.10799L88.0949 3.12459L88.4178 3.5031C88.5959 3.70721 88.7406 3.87791 88.7369 3.88162Z" fill="#CC3100" fill-opacity="0.71"/>
<path d="M9.285 27.54C9.195 27.4 9.08 27.32 8.94 27.3C8.81 27.27 8.705 27.255 8.625 27.255L7.095 36H2.04L5.37 17.07L5.385 13.77C5.835 13.72 6.34 13.67 6.9 13.62C7.46 13.56 8.025 13.51 8.595 13.47C9.165 13.43 9.72 13.4 10.26 13.38C10.81 13.35 11.305 13.335 11.745 13.335C12.995 13.335 14.13 13.47 15.15 13.74C16.17 14.01 17.035 14.415 17.745 14.955C18.455 15.495 18.99 16.17 19.35 16.98C19.71 17.78 19.855 18.715 19.785 19.785C19.735 20.525 19.595 21.2 19.365 21.81C19.145 22.41 18.855 22.95 18.495 23.43C18.135 23.9 17.72 24.32 17.25 24.69C16.78 25.05 16.28 25.365 15.75 25.635C15.22 25.905 14.67 26.13 14.1 26.31C13.53 26.49 12.96 26.635 12.39 26.745L14.4 27.24L19.41 36H13.89L9.285 27.54ZM10.08 19.05L9.21 23.97H10.17C10.85 23.97 11.465 23.88 12.015 23.7C12.575 23.52 13.055 23.26 13.455 22.92C13.855 22.58 14.17 22.165 14.4 21.675C14.63 21.185 14.765 20.63 14.805 20.01C14.845 19.3 14.765 18.715 14.565 18.255C14.375 17.785 14.115 17.415 13.785 17.145C13.465 16.875 13.105 16.69 12.705 16.59C12.305 16.48 11.925 16.425 11.565 16.425H10.77C10.68 16.425 10.6 16.43 10.53 16.44C10.46 16.44 10.375 16.445 10.275 16.455L10.08 19.05ZM32.0967 22.725C31.8967 22.695 31.7117 22.67 31.5417 22.65C31.3717 22.63 31.2517 22.615 31.1817 22.605C30.4317 22.605 29.7667 22.76 29.1867 23.07C28.6167 23.38 28.1267 23.795 27.7167 24.315C27.3067 24.835 26.9767 25.445 26.7267 26.145C26.4867 26.835 26.3267 27.57 26.2467 28.35C26.1867 28.96 26.1667 29.54 26.1867 30.09C26.2167 30.63 26.2867 31.11 26.3967 31.53C26.5067 31.94 26.6617 32.265 26.8617 32.505C27.0717 32.745 27.3217 32.865 27.6117 32.865C27.9517 32.865 28.2717 32.81 28.5717 32.7C28.8817 32.58 29.1667 32.43 29.4267 32.25C29.6967 32.07 29.9317 31.875 30.1317 31.665C30.3417 31.455 30.5217 31.255 30.6717 31.065L32.0967 22.725ZM26.7567 36.24C25.9867 36.23 25.3167 36.11 24.7467 35.88C24.1767 35.64 23.6867 35.32 23.2767 34.92C22.8767 34.52 22.5517 34.055 22.3017 33.525C22.0617 32.985 21.8817 32.41 21.7617 31.8C21.6517 31.18 21.5917 30.535 21.5817 29.865C21.5817 29.195 21.6267 28.53 21.7167 27.87C21.8067 27.15 21.9717 26.435 22.2117 25.725C22.4517 25.015 22.7667 24.34 23.1567 23.7C23.5567 23.06 24.0267 22.47 24.5667 21.93C25.1167 21.38 25.7417 20.91 26.4417 20.52C27.1517 20.12 27.9417 19.81 28.8117 19.59C29.6917 19.36 30.6517 19.245 31.6917 19.245C32.3017 19.255 32.9167 19.3 33.5367 19.38C34.0767 19.45 34.6617 19.56 35.2917 19.71C35.9217 19.86 36.5267 20.075 37.1067 20.355L34.9617 32.865L34.7517 36H29.9217L30.3417 33.57L28.0167 36.15C27.9067 36.17 27.7617 36.19 27.5817 36.21C27.4017 36.24 27.1267 36.25 26.7567 36.24ZM43.6709 33H44.8409C45.6309 33 46.3309 32.85 46.9409 32.55C47.5609 32.25 48.0859 31.845 48.5159 31.335C48.9559 30.825 49.3059 30.23 49.5659 29.55C49.8359 28.86 50.0209 28.13 50.1209 27.36C50.2109 26.63 50.2209 25.975 50.1509 25.395C50.0909 24.815 49.9759 24.32 49.8059 23.91C49.6359 23.5 49.4209 23.18 49.1609 22.95C48.9009 22.71 48.6209 22.56 48.3209 22.5C48.0509 22.45 47.7809 22.455 47.5109 22.515C47.2409 22.565 46.9759 22.655 46.7159 22.785C46.4659 22.905 46.2159 23.06 45.9659 23.25C45.7259 23.43 45.5009 23.625 45.2909 23.835L43.6709 33ZM37.1459 43.5L41.3609 19.605L46.1159 19.11L45.6359 21.84L47.9309 19.35C48.1509 19.32 48.3709 19.295 48.5909 19.275C48.8209 19.255 49.0559 19.245 49.2959 19.245C50.1059 19.245 50.8459 19.425 51.5159 19.785C52.1959 20.135 52.7659 20.66 53.2259 21.36C53.6959 22.06 54.0359 22.93 54.2459 23.97C54.4559 25 54.4959 26.19 54.3659 27.54C54.2459 28.78 53.9109 29.92 53.3609 30.96C52.8209 31.99 52.1009 32.88 51.2009 33.63C50.3109 34.38 49.2609 34.965 48.0509 35.385C46.8409 35.795 45.5109 36 44.0609 36H43.1459L41.8109 43.5H37.1459ZM60.6241 36H56.0341L58.7941 20.265L63.4741 19.785L60.6241 36ZM59.9041 13.5H64.6741L64.0591 16.965H59.2891L59.9041 13.5ZM76.5483 22.5H75.5133C74.7733 22.5 74.1133 22.66 73.5333 22.98C72.9633 23.3 72.4733 23.73 72.0633 24.27C71.6633 24.8 71.3383 25.415 71.0883 26.115C70.8483 26.805 70.6933 27.525 70.6233 28.275C70.4733 29.765 70.5233 30.9 70.7733 31.68C71.0233 32.45 71.4983 32.89 72.1983 33C72.5583 33.05 72.8833 33.035 73.1733 32.955C73.4633 32.875 73.7233 32.75 73.9533 32.58C74.1833 32.41 74.3833 32.21 74.5533 31.98C74.7333 31.75 74.8833 31.51 75.0033 31.26L76.5483 22.5ZM74.1783 36L74.5983 33.57L72.2733 36.15C72.1933 36.17 72.1133 36.185 72.0333 36.195C71.9633 36.215 71.8783 36.23 71.7783 36.24C71.6883 36.26 71.5733 36.27 71.4333 36.27C71.3033 36.28 71.1333 36.275 70.9233 36.255C70.0233 36.195 69.2283 35.965 68.5383 35.565C67.8583 35.155 67.2983 34.6 66.8583 33.9C66.4283 33.2 66.1333 32.36 65.9733 31.38C65.8233 30.4 65.8283 29.3 65.9883 28.08C66.1383 26.91 66.4683 25.805 66.9783 24.765C67.4883 23.725 68.1633 22.815 69.0033 22.035C69.8533 21.255 70.8633 20.64 72.0333 20.19C73.2033 19.73 74.5333 19.5 76.0233 19.5H77.0733L78.4833 11.52L83.1033 12L79.4133 32.865L79.2033 36H74.1783ZM100.75 27.54C100.66 27.4 100.545 27.32 100.405 27.3C100.275 27.27 100.17 27.255 100.09 27.255L98.5598 36H93.5048L96.8348 17.07L96.8498 13.77C97.2998 13.72 97.8048 13.67 98.3648 13.62C98.9248 13.56 99.4898 13.51 100.06 13.47C100.63 13.43 101.185 13.4 101.725 13.38C102.275 13.35 102.77 13.335 103.21 13.335C104.46 13.335 105.595 13.47 106.615 13.74C107.635 14.01 108.5 14.415 109.21 14.955C109.92 15.495 110.455 16.17 110.815 16.98C111.175 17.78 111.32 18.715 111.25 19.785C111.2 20.525 111.06 21.2 110.83 21.81C110.61 22.41 110.32 22.95 109.96 23.43C109.6 23.9 109.185 24.32 108.715 24.69C108.245 25.05 107.745 25.365 107.215 25.635C106.685 25.905 106.135 26.13 105.565 26.31C104.995 26.49 104.425 26.635 103.855 26.745L105.865 27.24L110.875 36H105.355L100.75 27.54ZM101.545 19.05L100.675 23.97H101.635C102.315 23.97 102.93 23.88 103.48 23.7C104.04 23.52 104.52 23.26 104.92 22.92C105.32 22.58 105.635 22.165 105.865 21.675C106.095 21.185 106.23 20.63 106.27 20.01C106.31 19.3 106.23 18.715 106.03 18.255C105.84 17.785 105.58 17.415 105.25 17.145C104.93 16.875 104.57 16.69 104.17 16.59C103.77 16.48 103.39 16.425 103.03 16.425H102.235C102.145 16.425 102.065 16.43 101.995 16.44C101.925 16.44 101.84 16.445 101.74 16.455L101.545 19.05ZM125.977 33.945C125.597 34.315 125.192 34.65 124.762 34.95C124.332 35.24 123.857 35.49 123.337 35.7C122.817 35.9 122.247 36.045 121.627 36.135C121.007 36.235 120.322 36.27 119.572 36.24C118.172 36.18 117.017 35.905 116.107 35.415C115.207 34.925 114.502 34.295 113.992 33.525C113.492 32.745 113.167 31.86 113.017 30.87C112.877 29.88 112.867 28.855 112.987 27.795C113.067 27.125 113.212 26.44 113.422 25.74C113.642 25.03 113.932 24.35 114.292 23.7C114.652 23.05 115.087 22.445 115.597 21.885C116.107 21.315 116.687 20.825 117.337 20.415C117.997 20.005 118.732 19.695 119.542 19.485C120.352 19.275 121.242 19.2 122.212 19.26C123.352 19.33 124.307 19.585 125.077 20.025C125.857 20.455 126.462 21.005 126.892 21.675C127.332 22.345 127.607 23.1 127.717 23.94C127.837 24.78 127.807 25.64 127.627 26.52C127.557 26.84 127.457 27.15 127.327 27.45C127.207 27.75 127.082 28.015 126.952 28.245C126.802 28.515 126.647 28.77 126.487 29.01H117.262C117.192 29.63 117.222 30.19 117.352 30.69C117.492 31.18 117.707 31.6 117.997 31.95C118.297 32.29 118.657 32.55 119.077 32.73C119.497 32.91 119.952 33 120.442 33C120.872 33 121.262 32.955 121.612 32.865C121.962 32.775 122.272 32.665 122.542 32.535C122.822 32.395 123.067 32.25 123.277 32.1C123.487 31.95 123.672 31.815 123.832 31.695L125.977 33.945ZM123.772 25.92C123.952 25.51 124.032 25.105 124.012 24.705C124.002 24.305 123.912 23.95 123.742 23.64C123.572 23.32 123.322 23.06 122.992 22.86C122.672 22.65 122.292 22.53 121.852 22.5C121.382 22.47 120.972 22.515 120.622 22.635C120.272 22.745 119.967 22.905 119.707 23.115C119.447 23.325 119.227 23.565 119.047 23.835C118.867 24.105 118.712 24.38 118.582 24.66L116.947 26.205L119.587 25.935L123.772 25.92ZM140.056 22.725C139.856 22.695 139.671 22.67 139.501 22.65C139.331 22.63 139.211 22.615 139.141 22.605C138.391 22.605 137.726 22.76 137.146 23.07C136.576 23.38 136.086 23.795 135.676 24.315C135.266 24.835 134.936 25.445 134.686 26.145C134.446 26.835 134.286 27.57 134.206 28.35C134.146 28.96 134.126 29.54 134.146 30.09C134.176 30.63 134.246 31.11 134.356 31.53C134.466 31.94 134.621 32.265 134.821 32.505C135.031 32.745 135.281 32.865 135.571 32.865C135.911 32.865 136.231 32.81 136.531 32.7C136.841 32.58 137.126 32.43 137.386 32.25C137.656 32.07 137.891 31.875 138.091 31.665C138.301 31.455 138.481 31.255 138.631 31.065L140.056 22.725ZM134.716 36.24C133.946 36.23 133.276 36.11 132.706 35.88C132.136 35.64 131.646 35.32 131.236 34.92C130.836 34.52 130.511 34.055 130.261 33.525C130.021 32.985 129.841 32.41 129.721 31.8C129.611 31.18 129.551 30.535 129.541 29.865C129.541 29.195 129.586 28.53 129.676 27.87C129.766 27.15 129.931 26.435 130.171 25.725C130.411 25.015 130.726 24.34 131.116 23.7C131.516 23.06 131.986 22.47 132.526 21.93C133.076 21.38 133.701 20.91 134.401 20.52C135.111 20.12 135.901 19.81 136.771 19.59C137.651 19.36 138.611 19.245 139.651 19.245C140.261 19.255 140.876 19.3 141.496 19.38C142.036 19.45 142.621 19.56 143.251 19.71C143.881 19.86 144.486 20.075 145.066 20.355L142.921 32.865L142.711 36H137.881L138.301 33.57L135.976 36.15C135.866 36.17 135.721 36.19 135.541 36.21C135.361 36.24 135.086 36.25 134.716 36.24ZM157.525 22.5H156.49C155.75 22.5 155.09 22.66 154.51 22.98C153.94 23.3 153.45 23.73 153.04 24.27C152.64 24.8 152.315 25.415 152.065 26.115C151.825 26.805 151.67 27.525 151.6 28.275C151.45 29.765 151.5 30.9 151.75 31.68C152 32.45 152.475 32.89 153.175 33C153.535 33.05 153.86 33.035 154.15 32.955C154.44 32.875 154.7 32.75 154.93 32.58C155.16 32.41 155.36 32.21 155.53 31.98C155.71 31.75 155.86 31.51 155.98 31.26L157.525 22.5ZM155.155 36L155.575 33.57L153.25 36.15C153.17 36.17 153.09 36.185 153.01 36.195C152.94 36.215 152.855 36.23 152.755 36.24C152.665 36.26 152.55 36.27 152.41 36.27C152.28 36.28 152.11 36.275 151.9 36.255C151 36.195 150.205 35.965 149.515 35.565C148.835 35.155 148.275 34.6 147.835 33.9C147.405 33.2 147.11 32.36 146.95 31.38C146.8 30.4 146.805 29.3 146.965 28.08C147.115 26.91 147.445 25.805 147.955 24.765C148.465 23.725 149.14 22.815 149.98 22.035C150.83 21.255 151.84 20.64 153.01 20.19C154.18 19.73 155.51 19.5 157 19.5H158.05L159.46 11.52L164.08 12L160.39 32.865L160.18 36H155.155ZM168.583 36H163.993L166.753 20.265L171.433 19.785L168.583 36ZM167.863 13.5H172.633L172.018 16.965H167.248L167.863 13.5ZM180.742 19.11L180.247 21.945L181.987 19.68C182.327 19.57 182.672 19.475 183.022 19.395C183.372 19.315 183.722 19.265 184.072 19.245C184.612 19.205 185.072 19.205 185.452 19.245C185.842 19.275 186.187 19.35 186.487 19.47C186.787 19.58 187.057 19.735 187.297 19.935C187.537 20.125 187.782 20.36 188.032 20.64C188.302 20.95 188.487 21.305 188.587 21.705C188.687 22.095 188.737 22.495 188.737 22.905C188.747 23.305 188.722 23.7 188.662 24.09C188.602 24.47 188.547 24.805 188.497 25.095L186.577 36H181.882L183.877 24.645C183.987 24.005 183.922 23.515 183.682 23.175C183.452 22.835 183.142 22.61 182.752 22.5C182.592 22.46 182.397 22.455 182.167 22.485C181.947 22.505 181.707 22.57 181.447 22.68C181.187 22.78 180.922 22.92 180.652 23.1C180.392 23.28 180.147 23.5 179.917 23.76L177.772 36H173.077L175.957 19.605L180.742 19.11ZM200.111 35.76C199.761 35.9 199.336 36.025 198.836 36.135C198.346 36.255 197.811 36.295 197.231 36.255C196.221 36.195 195.351 35.94 194.621 35.49C193.891 35.04 193.296 34.445 192.836 33.705C192.386 32.965 192.071 32.095 191.891 31.095C191.721 30.085 191.691 28.995 191.801 27.825C191.911 26.645 192.181 25.535 192.611 24.495C193.051 23.455 193.651 22.55 194.411 21.78C195.171 21 196.086 20.385 197.156 19.935C198.236 19.475 199.471 19.245 200.861 19.245C201.041 19.245 201.191 19.25 201.311 19.26C201.431 19.26 201.541 19.27 201.641 19.29L202.586 21.63L203.036 19.11L207.611 19.605L204.611 36.615C204.411 37.735 204.056 38.75 203.546 39.66C203.046 40.58 202.411 41.355 201.641 41.985C200.881 42.615 199.996 43.085 198.986 43.395C197.976 43.715 196.861 43.835 195.641 43.755C194.981 43.715 194.386 43.625 193.856 43.485C193.326 43.355 192.846 43.185 192.416 42.975C191.986 42.765 191.601 42.525 191.261 42.255C190.931 41.985 190.636 41.695 190.376 41.385L192.986 38.88C193.116 39.02 193.296 39.17 193.526 39.33C193.756 39.5 194.016 39.66 194.306 39.81C194.596 39.96 194.906 40.09 195.236 40.2C195.576 40.31 195.916 40.375 196.256 40.395C196.676 40.425 197.091 40.355 197.501 40.185C197.921 40.015 198.301 39.755 198.641 39.405C198.991 39.065 199.286 38.64 199.526 38.13C199.776 37.63 199.936 37.055 200.006 36.405L200.111 35.76ZM202.226 23.7C201.996 23.38 201.716 23.1 201.386 22.86C201.056 22.62 200.666 22.5 200.216 22.5C199.556 22.5 199.001 22.66 198.551 22.98C198.111 23.3 197.746 23.72 197.456 24.24C197.166 24.75 196.941 25.335 196.781 25.995C196.631 26.655 196.521 27.32 196.451 27.99C196.301 29.47 196.346 30.65 196.586 31.53C196.836 32.4 197.316 32.89 198.026 33C198.616 33.09 199.131 33.01 199.571 32.76C200.021 32.5 200.436 32.145 200.816 31.695L202.226 23.7Z" fill="#CC3100" fill-opacity="0.71"/>
</svg>
