<svg width="82" height="82" viewBox="0 0 82 82" fill="none" xmlns="http://www.w3.org/2000/svg">
<path d="M40.1457 20.5C26.9573 20.5 16.229 31.2284 16.229 44.4167C16.229 57.605 26.9573 68.3334 40.1457 68.3334C53.334 68.3334 64.0623 57.605 64.0623 44.4167C64.0623 31.2284 53.334 20.5 40.1457 20.5ZM40.1457 63.2084C29.7932 63.2084 21.354 54.7692 21.354 44.4167C21.354 34.0642 29.7932 25.625 40.1457 25.625C50.4982 25.625 58.9373 34.0642 58.9373 44.4167C58.9373 54.7692 50.4982 63.2084 40.1457 63.2084ZM29.0415 16.2292C29.0415 14.8284 30.2032 13.6667 31.604 13.6667H48.6873C50.0882 13.6667 51.2498 14.8284 51.2498 16.2292C51.2498 17.63 50.0882 18.7917 48.6873 18.7917H31.604C30.2032 18.7917 29.0415 17.63 29.0415 16.2292ZM42.7082 34.1667V44.4167C42.7082 45.8175 41.5465 46.9792 40.1457 46.9792C38.7448 46.9792 37.5832 45.8175 37.5832 44.4167V34.1667C37.5832 32.7659 38.7448 31.6042 40.1457 31.6042C41.5465 31.6042 42.7082 32.7659 42.7082 34.1667ZM65.0532 28.2559C64.5407 28.7684 63.8915 29.0075 63.2423 29.0075C62.5932 29.0075 61.944 28.7684 61.4315 28.2559L56.3065 23.1309C55.3157 22.14 55.3157 20.5 56.3065 19.5092C57.2973 18.5184 58.9373 18.5184 59.9282 19.5092L65.0532 24.6342C66.044 25.625 66.044 27.265 65.0532 28.2559Z" fill="#F66F24"/>
</svg>
