<svg version="1.1" xmlns="http://www.w3.org/2000/svg" xmlns:xlink="http://www.w3.org/1999/xlink" width="77.000000pt" height="56.000000pt" viewBox="0,0,256,237.26563"><g transform="translate(-90.09059,-83.49766) scale(1.70383,1.70383)"><g fill="#f66f24" fill-rule="nonzero" stroke="none" stroke-width="1" stroke-linecap="butt" stroke-linejoin="miter" stroke-miterlimit="10" stroke-dasharray="" stroke-dashoffset="0" font-family="none" font-weight="none" font-size="none" text-anchor="none" style="mix-blend-mode: normal"><g transform="translate(5.40168,-3.52468) scale(0.89199,0.89199)"><g transform="translate(0,266) scale(0.1,-0.1)"><path d="M1027,1968c-76,-292 -277,-1112 -277,-1129c0,-18 6,-20 78,-17l77,3l70,280l70,280l48,3c38,3 47,0 47,-13c0,-9 -45,-197 -99,-418c-55,-221 -101,-411 -103,-422c-3,-19 3,-20 77,-20h79l71,282l70,283h60c58,0 62,-1 79,-32c62,-108 131,-224 137,-228c3,-3 41,-66 84,-140c43,-74 83,-143 89,-152c9,-15 26,-18 103,-18c51,0 93,4 93,9c0,5 -15,36 -33,68c-51,89 -124,216 -156,275c-16,29 -50,89 -75,133c-25,44 -46,82 -46,85c0,3 32,13 71,22c140,33 273,144 329,274c22,51 35,142 26,188c-12,62 -125,166 -181,166c-13,0 -15,10 -9,64c8,83 -6,124 -63,181c-79,78 -129,88 -434,93l-256,3zM1543,1909c53,-18 99,-72 95,-112l-3,-32l-197,-3l-197,-2l-10,-38c-6,-20 -18,-71 -29,-112l-18,-75l-53,-3c-47,-3 -52,-1 -47,15c3,10 21,81 40,158c20,77 41,160 47,184l12,44l161,-6c89,-3 178,-11 199,-18zM1551,1606c-7,-8 -27,-21 -45,-30c-37,-18 -148,-48 -153,-42c-3,2 1,22 7,45l11,41h96c81,0 94,-2 84,-14zM1813,1533c16,-28 17,-39 8,-89c-16,-87 -40,-124 -102,-162c-64,-39 -104,-52 -184,-59c-60,-5 -60,-5 -79,29c-53,92 -76,134 -76,138c0,4 26,11 58,18c78,16 213,94 258,149l36,44l31,-18c17,-11 40,-33 50,-50z"></path></g></g></g></g></svg>